# xmcd
#
# Track frame offsets: 
#        150
#        15335
#        29050
#        44890
#        59545
#        74742
#        90500
#        105860
#        121002
#        135850
#        151805
#        167312
#        182195
#        196452
#        211762
#        226772
#        242610
#        254685
#        269490
#        285260
#        298215
#        310917
#
# Disc length: 4344 seconds
#
# Revision: 0
# Processed by: cddbd v1.5.2PL0 Copyright (c) Steve Scherf et al.
# Submitted via: ExactAudioCopy v1.1
#
DISCID=3410f616
DTITLE=淡谷のり子 - SP盤復刻による 淡谷のり子名唱集 Disc 3 COCA-11215-17
DYEAR=1900
DGENRE=Blues
TTITLE0=あこがれのカロライナ
TTITLE1=テレジーナ
TTITLE2=モルーチャ
TTITLE3=虹のレイ
TTITLE4=ジーラ・ジーラ
TTITLE5=巴里祭
TTITLE6=悲劇
TTITLE7=暗い日曜日
TTITLE8=マディアナ
TTITLE9=アマポーラ
TTITLE10=草笛吹いて
TTITLE11=溜息と涙
TTITLE12=さよならも言わずに
TTITLE13=ジプシーの嘆き
TTITLE14=人の気も知らないで
TTITLE15=ヴェニ・ヴェニ
TTITLE16=ブエノスアイレスの歌
TTITLE17=ルムバ・タムバ
TTITLE18=ジャニータ
TTITLE19=エスパニヤ・カーニ
TTITLE20=ラ・クムパルシータ
TTITLE21=待ちましょう
EXTD=
EXTT0=
EXTT1=
EXTT2=
EXTT3=
EXTT4=
EXTT5=
EXTT6=
EXTT7=
EXTT8=
EXTT9=
EXTT10=
EXTT11=
EXTT12=
EXTT13=
EXTT14=
EXTT15=
EXTT16=
EXTT17=
EXTT18=
EXTT19=
EXTT20=
EXTT21=
PLAYORDER=
